<svg width="16" height="16" viewBox="0 0 16 16" fill="none" xmlns="http://www.w3.org/2000/svg">
<path class="icon-primary-color" d="M14.149 4.77818L10.8492 1.47835C10.5899 1.21907 10.1657 1.21907 9.9064 1.47835C9.64713 1.73762 9.64713 2.16188 9.9064 2.42116L2.12823 10.1993C1.20899 11.1186 1.23256 12.6035 2.12823 13.4992C3.0239 14.3948 4.50882 14.4184 5.42806 13.4992L13.2062 5.72099C13.4655 5.98026 13.8898 5.98026 14.149 5.72099C14.4083 5.46172 14.4083 5.03745 14.149 4.77818Z" />
<path class="icon-secondary-color" d="M2.59962 10.6707C1.93965 11.3307 1.93965 12.3678 2.59962 13.0277C3.25958 13.6877 4.29667 13.6877 4.95664 13.0277L10.6135 7.37089L8.25647 5.01387L2.59962 10.6707Z" />
<path class="icon-secondary-color" d="M4.83883 9.37436C5.02739 9.1858 5.35738 9.1858 5.54594 9.37436C5.7345 9.56293 5.7345 9.89291 5.54594 10.0815C5.35738 10.27 5.02739 10.27 4.83883 10.0815C4.65027 9.89291 4.65027 9.56293 4.83883 9.37436ZM4.01387 12.0849C4.1553 12.2264 4.34386 12.2264 4.48528 12.0849C4.6267 11.9435 4.6267 11.755 4.48528 11.6135C4.34386 11.4721 4.1553 11.4721 4.01387 11.6135C3.87245 11.755 3.87245 11.9435 4.01387 12.0849ZM6.72445 9.13866C7.05443 9.46865 7.57298 9.46865 7.90296 9.13866C8.23294 8.80868 8.23294 8.29013 7.90296 7.96015C7.57298 7.63017 7.05443 7.63017 6.72445 7.96015C6.39447 8.29013 6.39447 8.80868 6.72445 9.13866Z" />
<path class="icon-primary-color" d="M9.90649 2.42116L13.2063 5.72099L12.7349 6.19239L9.43509 2.89256L9.90649 2.42116Z" />
</svg>
